<svg width="241" height="85" fill="none" xmlns="http://www.w3.org/2000/svg"><g clip-path="url(#clip0_1006_6414)"><path d="M60.141 34.944c0 2.864.936 6.713 4.023 9.8 4.981 4.982 11.746 4.972 16.057 2.632C85.498 44.51 97.369 35.924 85.044.297c0 16.816-24.905 18.526-24.905 34.647h.002z" fill="#FF9C1A"/><path d="M71.481 15.018c-.819-4.408-2.13-8.922-4.093-14.72 0 16.815-24.905 18.525-24.905 34.646 0 2.864.936 6.713 4.023 9.8 4.982 4.982 11.798 4.968 16.057 2.632-9.915-10.558-6.414-22.78 8.918-32.355v-.003z" fill="#0DA9FF"/><path d="M53.828 15.018c-.82-4.408-2.13-8.922-4.093-14.72 0 16.815-24.905 18.525-24.905 34.646 0 8.27 6.697 11.908 6.697 11.908s-1.67 6.082-.634 13.49l3.194-.53c-1.56-5.434-.604-11.352-.503-11.933 4.083 1.638 8.303 1.152 11.326-.505-9.915-10.558-6.414-22.778 8.918-32.356zM8.724 74.904c-.59-.36-1.334-.662-2.235-.903l-1.636-.437c-.76-.216-1.343-.466-1.75-.751-.405-.286-.609-.714-.609-1.285s.25-.983.752-1.313c.5-.33 1.17-.494 2.007-.494.838 0 1.486.18 2.064.543.578.36.98.922 1.208 1.683l1.731-.646c-.229-.749-.57-1.367-1.027-1.856a4.48 4.48 0 00-1.703-1.123c-.68-.26-1.444-.39-2.294-.39-.952 0-1.785.158-2.501.474-.716.318-1.275.758-1.673 1.322-.4.564-.6 1.215-.6 1.95a3.4 3.4 0 00.391 1.635c.26.482.658.894 1.19 1.236.533.341 1.179.622 1.94.837l1.635.438c.685.178 1.235.368 1.654.571.419.204.726.435.922.695.197.26.295.562.295.903 0 .571-.278 1.028-.838 1.37-.559.34-1.306.514-2.244.514-.938 0-1.74-.239-2.368-.714a3.768 3.768 0 01-1.322-1.837L0 78.05c.241.734.61 1.375 1.114 1.92a4.98 4.98 0 001.846 1.257c.73.293 1.545.438 2.445.438 1.04 0 1.94-.162 2.703-.485.76-.323 1.348-.77 1.76-1.34.412-.571.618-1.243.618-2.017 0-.623-.145-1.173-.438-1.655-.292-.482-.732-.903-1.322-1.266l-.002.002zm5.236-.769c.267-.279.574-.492.922-.637.349-.145.714-.22 1.095-.22.62 0 1.173.15 1.655.447.482.297.863.807 1.142 1.53l1.598-.76c-.255-.697-.613-1.259-1.074-1.683a4.266 4.266 0 00-1.54-.921 5.55 5.55 0 00-1.778-.286c-.686 0-1.315.122-1.893.363a4.587 4.587 0 00-1.521 1.027 4.53 4.53 0 00-1.009 1.589c-.234.615-.35 1.296-.35 2.045 0 .99.205 1.863.617 2.616.412.754.98 1.343 1.703 1.77.723.425 1.543.636 2.455.636.62 0 1.215-.096 1.779-.286.563-.19 1.078-.5 1.54-.931.463-.43.82-.99 1.073-1.673L18.776 78c-.278.71-.66 1.216-1.142 1.52-.482.305-1.034.457-1.654.457-.52 0-1-.127-1.437-.382-.438-.252-.786-.632-1.046-1.132-.26-.501-.39-1.114-.39-1.837 0-.545.074-1.028.229-1.446.152-.42.362-.768.627-1.046h-.003zm14.324-1.903c-.735-.419-1.58-.627-2.53-.627a5.12 5.12 0 00-1.94.363 4.59 4.59 0 00-2.588 2.635 5.514 5.514 0 00-.363 2.026c0 .99.213 1.865.637 2.625a4.583 4.583 0 001.75 1.779c.742.426 1.582.636 2.52.636.698 0 1.343-.124 1.94-.37a4.766 4.766 0 001.561-1.036 4.574 4.574 0 001.027-1.589c.241-.615.36-1.296.36-2.045 0-1.002-.212-1.879-.636-2.635a4.575 4.575 0 00-1.74-1.76l.002-.002zm.248 5.803a3.04 3.04 0 01-.628 1.056 2.69 2.69 0 01-.95.655c-.367.152-.767.23-1.198.23a2.907 2.907 0 01-1.511-.4 2.805 2.805 0 01-1.065-1.152c-.26-.5-.39-1.1-.39-1.797 0-.534.072-1.002.217-1.409.145-.405.35-.754.617-1.046.267-.293.583-.51.95-.655a3.19 3.19 0 011.18-.22c.583 0 1.1.133 1.551.4.45.267.805.646 1.065 1.142.26.494.39 1.09.39 1.788 0 .52-.074.99-.228 1.408zm11.595-9.418l-1.883 1.142v2.035h-3.939v-3.177l-1.883 1.142v2.035h-1.788v1.561h1.788v5.118c0 .583.11 1.105.332 1.56.222.457.547.81.98 1.056.43.248.964.37 1.599.37h1.198v-1.636h-.99c-.43 0-.744-.126-.94-.381-.197-.253-.296-.62-.296-1.105v-4.984h3.939v5.118c0 .582.11 1.104.332 1.56.222.457.547.81.98 1.056.43.248.964.37 1.599.37h1.198V79.82h-.99c-.43 0-.744-.126-.94-.382-.197-.252-.296-.62-.296-1.104V73.35h2.226v-1.56h-2.226v-3.178.005zm5.366 3.177h-1.865v9.665h1.865v-9.665zm-.019-3.758a1.338 1.338 0 00-.913-.332c-.353 0-.657.112-.903.332-.248.223-.37.525-.37.904s.124.662.37.884c.248.222.547.332.903.332s.66-.11.913-.332c.252-.222.381-.517.381-.884 0-.368-.126-.681-.381-.904zm8.649 8.981c-.49-.463-1.24-.821-2.254-1.074l-.95-.23a9.194 9.194 0 01-1.009-.322 2.185 2.185 0 01-.704-.419.84.84 0 01-.267-.646c0-.33.169-.599.503-.81.337-.208.777-.313 1.322-.313.546 0 1.056.124 1.493.372.438.248.745.67.922 1.266l1.561-.57a3.375 3.375 0 00-.819-1.466 3.725 3.725 0 00-1.378-.894 4.995 4.995 0 00-1.779-.304c-.723 0-1.359.117-1.911.351-.553.234-.983.56-1.294.971a2.288 2.288 0 00-.466 1.418c0 .712.234 1.31.704 1.797.468.49 1.224.86 2.263 1.114l.971.248c.686.153 1.189.328 1.512.525.323.196.484.472.484.828s-.19.65-.57.885c-.382.234-.909.35-1.58.35-.382 0-.749-.063-1.105-.19a2.443 2.443 0 01-.922-.58 2.4 2.4 0 01-.58-.98l-1.521.667c.23.623.545 1.126.952 1.512a3.9 3.9 0 001.428.865 5.29 5.29 0 001.75.286c.812 0 1.517-.124 2.11-.37.598-.248 1.056-.587 1.38-1.018a2.41 2.41 0 00.484-1.483c0-.723-.244-1.315-.733-1.779l.003-.007zm8.536-4.956c-.534-.304-1.15-.456-1.846-.456-.66 0-1.278.175-1.856.524-.414.25-.744.615-1 1.098v-5.083h-1.864v13.317h1.865v-5.726c0-.774.224-1.378.676-1.816.45-.437 1.03-.657 1.741-.657.634 0 1.147.215 1.542.645.393.431.59 1.016.59 1.75v5.804h1.884v-6.107c0-.76-.155-1.423-.466-1.99a3.302 3.302 0 00-1.266-1.303zm12.004-2.768c-.875-.768-2.08-1.151-3.615-1.151h-4.91v13.317h1.96V76.74h2.966c1.014 0 1.887-.17 2.617-.515a3.87 3.87 0 001.694-1.483c.4-.646.599-1.409.599-2.284 0-1.343-.438-2.4-1.313-3.168l.002.002zm-1.54 5.07c-.533.431-1.275.647-2.225.647h-2.796v-5.1h2.796c.953 0 1.695.214 2.226.637.533.426.798 1.063.798 1.912 0 .85-.267 1.472-.798 1.902v.003zm10.435-2.131c-.735-.419-1.58-.627-2.53-.627a5.12 5.12 0 00-1.94.363 4.59 4.59 0 00-2.588 2.635 5.514 5.514 0 00-.362 2.026c0 .99.213 1.865.636 2.625a4.583 4.583 0 001.75 1.779c.742.426 1.582.636 2.52.636.698 0 1.344-.124 1.94-.37a4.766 4.766 0 001.561-1.036 4.574 4.574 0 001.028-1.589c.24-.615.36-1.296.36-2.045 0-1.002-.213-1.879-.636-2.635a4.575 4.575 0 00-1.741-1.76l.002-.002zm.248 5.803a3.04 3.04 0 01-.627 1.056 2.691 2.691 0 01-.95.655 3.11 3.11 0 01-1.198.23c-.56 0-1.063-.134-1.512-.4a2.805 2.805 0 01-1.065-1.152c-.26-.5-.39-1.1-.39-1.797 0-.534.072-1.002.217-1.409.145-.405.351-.754.618-1.046.267-.293.583-.51.95-.655.367-.145.76-.22 1.18-.22.582 0 1.1.133 1.55.4.45.267.806.646 1.066 1.142.26.494.39 1.09.39 1.788 0 .52-.075.99-.229 1.408zm12.643-1.045c-.089.278-.17.554-.248.828-.077.273-.16.573-.248.903l-.552-1.713-1.655-5.214H92.13l-1.636 5.195-.257.847c-.082.274-.175.574-.276.904-.1-.33-.19-.632-.267-.904a48.652 48.652 0 00-.248-.847l-1.54-5.195h-1.98l3.064 9.665h1.769l1.636-5.193c.14-.419.31-.983.512-1.694.241.711.426 1.275.552 1.694l1.636 5.193h1.788l3.044-9.665h-1.94l-1.542 5.195h.005zm10.425-4.767c-.672-.412-1.439-.618-2.303-.618-.685 0-1.31.117-1.874.351a4.231 4.231 0 00-1.474 1.018c-.419.444-.74.973-.962 1.589-.222.615-.332 1.303-.332 2.064 0 1.001.203 1.881.608 2.635a4.483 4.483 0 001.673 1.769c.709.425 1.528.636 2.455.636.557 0 1.1-.08 1.626-.239a4.13 4.13 0 001.446-.779 4.854 4.854 0 001.133-1.4l-1.446-.893a3.318 3.318 0 01-.723.962c-.279.248-.59.426-.932.533a3.66 3.66 0 01-1.104.162 2.822 2.822 0 01-1.465-.382c-.43-.252-.77-.632-1.018-1.132-.196-.4-.313-.88-.356-1.437h7.194c.011-.089.018-.178.018-.267v-.248c0-.99-.194-1.855-.58-2.597a4.324 4.324 0 00-1.589-1.732l.005.005zm-4.329 1.846a2.19 2.19 0 01.866-.667c.341-.145.723-.22 1.142-.22.76 0 1.385.279 1.874.838.349.4.573.952.672 1.654h-5.214c.03-.185.07-.358.119-.524a3.18 3.18 0 01.543-1.083l-.002.002zm12.185-2.464c-.571 0-1.081.145-1.533.438-.449.292-.814.734-1.093 1.331v-1.58h-1.865v9.665h1.865v-5.155c0-.824.209-1.484.627-1.978.419-.493.95-.741 1.599-.741h.952v-1.98h-.552z" fill="#00A443"/><path d="M135.418 0v81.335" stroke="#B0A9A3" stroke-miterlimit="10"/><path d="M190.71 0a27.103 27.103 0 00-9.835 4.69l38.093 38.093a27.103 27.103 0 004.69-9.835L190.71 0z" fill="#19B8D3"/><path d="M213.635 48.116l-38.093-38.093a27.085 27.085 0 00-4.689 9.835L203.8 52.805a27.104 27.104 0 009.835-4.69z" fill="#E7215B"/><path d="M182.004 16.478l-7.262 7.263 12.594 12.593 7.262-7.262-12.594-12.594z" fill="#881439"/><path d="M207.186 16.476l-7.262 7.262 12.593 12.593 7.263-7.262-12.594-12.593z" fill="#1F8299"/><path d="M213.635 4.69A27.103 27.103 0 00203.8 0l-32.947 32.948a27.085 27.085 0 004.689 9.835l38.093-38.094z" fill="#19B8D3"/><path d="M180.875 48.116a27.104 27.104 0 009.835 4.69l32.948-32.948a27.103 27.103 0 00-4.69-9.835l-38.093 38.093z" fill="#E7215B"/><path d="M159.943 76.418c0 1.68-1.128 2.647-2.733 2.647h-1.411v2.343h-1.844v-7.592h3.253c1.605 0 2.733.922 2.733 2.602h.002zm-1.865.022c0-.576-.316-.869-.943-.869h-1.334v1.737h1.334c.63 0 .943-.293.943-.868zm6.756-1.105v1.898c-.119-.012-.196-.021-.37-.021-.868 0-1.703.26-1.703 1.617v2.58h-1.844v-5.964h1.844v.922c.37-.725.976-1.062 1.736-1.062.141 0 .251.011.337.032v-.002zm6.77 3.48h-4.35c.086.922.671 1.312 1.312 1.312.499 0 .911-.238 1.053-.671h1.898c-.412 1.474-1.659 2.094-2.951 2.094-1.909 0-3.189-1.355-3.189-3.124 0-1.769 1.292-3.124 3.145-3.124 1.975 0 3.264 1.552 3.079 3.515l.003-.002zm-4.294-1.119h2.375c-.119-.575-.51-.976-1.172-.976-.663 0-1.053.4-1.203.976zm14.576-.019v3.73h-1.844V78.09c0-.65-.194-1.03-.889-1.03-.695 0-1.041.359-1.041 1.182v3.169h-1.844v-3.318c0-.65-.195-1.03-.89-1.03-.695 0-1.041.358-1.041 1.182v3.168h-1.844v-5.965h1.844v.672c.433-.531.988-.814 1.692-.814.814 0 1.441.379 1.79 1.041a2.333 2.333 0 011.975-1.041c1.28 0 2.094.922 2.094 2.375l-.002-.003zm3.072-4.003c0 .617-.466 1.062-1.116 1.062-.651 0-1.116-.445-1.116-1.062 0-.618.486-1.053 1.116-1.053.629 0 1.116.444 1.116 1.053zm-2.038 1.769h1.844v5.964h-1.844v-5.964zm9.044 3.372h-4.35c.087.922.672 1.312 1.313 1.312.498 0 .91-.238 1.053-.671h1.898c-.412 1.474-1.66 2.094-2.951 2.094-1.91 0-3.19-1.355-3.19-3.124 0-1.769 1.292-3.124 3.145-3.124 1.975 0 3.265 1.552 3.08 3.515l.002-.002zm-4.294-1.119h2.375c-.119-.575-.51-.976-1.172-.976-.662 0-1.053.4-1.203.976zm9.099-2.361v1.898c-.12-.012-.197-.021-.37-.021-.868 0-1.703.26-1.703 1.617v2.58h-1.844v-5.964h1.844v.922c.369-.725.975-1.062 1.736-1.062.14 0 .25.011.337.032v-.002zm9.155 4.315v1.757h-4.923v-7.59h1.844v5.833h3.079zm6.932-.835h-4.35c.086.922.671 1.312 1.312 1.312.499 0 .911-.238 1.053-.671h1.898c-.412 1.474-1.659 2.094-2.951 2.094-1.909 0-3.189-1.355-3.189-3.124 0-1.769 1.292-3.124 3.145-3.124 1.975 0 3.264 1.552 3.079 3.515l.003-.002zm-4.294-1.119h2.375c-.119-.575-.51-.976-1.172-.976-.663 0-1.053.4-1.203.976zm11.3-2.253l-.012 5.965h-1.843v-.642c-.38.466-.922.782-1.681.782-1.518 0-2.688-1.28-2.688-3.124s1.193-3.124 2.679-3.124c.758 0 1.322.325 1.704.814v-.671h1.844-.003zm-1.844 2.981c0-.824-.543-1.367-1.259-1.367-.716 0-1.259.543-1.259 1.367s.553 1.367 1.259 1.367c.707 0 1.259-.532 1.259-1.367zm9.046-2.981v5.878c0 1.769-1.181 2.939-3.004 2.939-1.453 0-2.874-.716-3.07-2.363h1.897c.141.596.618.725 1.119.725.803 0 1.214-.38 1.214-1.236v-.727c-.39.465-.933.781-1.691.781-1.519 0-2.689-1.28-2.689-3.07 0-1.79 1.193-3.07 2.689-3.07.748 0 1.312.325 1.691.803v-.662h1.844v.002zm-1.844 2.927c0-.77-.542-1.313-1.259-1.313-.716 0-1.258.543-1.258 1.313 0 .77.552 1.313 1.258 1.313.707 0 1.259-.531 1.259-1.313zm8.56-2.927v5.964h-1.844v-.683c-.433.543-.987.824-1.713.824-1.312 0-2.124-.922-2.124-2.375v-3.73h1.844v3.318c0 .65.196 1.03.922 1.03.725 0 1.074-.359 1.074-1.182v-3.166h1.844-.003zm7.204 3.372h-4.35c.086.922.671 1.312 1.312 1.312.499 0 .911-.238 1.053-.671h1.898c-.412 1.474-1.659 2.094-2.951 2.094-1.909 0-3.189-1.355-3.189-3.124 0-1.769 1.292-3.124 3.145-3.124 1.975 0 3.264 1.552 3.079 3.515l.003-.002zm-4.294-1.119h2.375c-.119-.575-.51-.976-1.173-.976-.662 0-1.053.4-1.202.976z" fill="#19B8D3"/><path d="M161.544 67.75c0 1.475-1.362 1.94-2.326 1.94-1.844 0-2.542-1.076-2.663-2.103h1.481c.138.5.405.732 1.172.732.595 0 .861-.19.861-.507 0-.354-.362-.38-1.369-.595-.982-.206-1.991-.568-1.991-1.818 0-1.327 1.182-1.963 2.326-1.963 1.706 0 2.352.957 2.455 1.998h-1.481c-.087-.353-.286-.63-.974-.63s-.854.267-.854.525c0 .285.276.318.87.45 1.69.36 2.49.741 2.49 1.972h.003zm.643-.542c0-1.404 1.035-2.483 2.49-2.483 1.179 0 2.24.716 2.387 1.982h-1.507c-.112-.456-.491-.63-.88-.63-.646 0-1.008.466-1.008 1.129 0 .662.388 1.128.999 1.128.395 0 .774-.19.887-.64h1.507c-.155 1.311-1.241 1.992-2.397 1.992-1.448 0-2.482-1.076-2.482-2.483l.004.005zm10.444 0c0 1.43-1.095 2.483-2.48 2.483-1.386 0-2.483-1.06-2.483-2.483s1.111-2.483 2.483-2.483c1.371 0 2.48 1.051 2.48 2.483zm-3.482 0c0 .665.44 1.086.999 1.086.56 0 1-.421 1-1.086s-.431-1.086-1-1.086c-.568 0-.999.43-.999 1.086zm8.014 2.068c-.267.19-.887.415-1.481.415-.913 0-1.809-.534-1.809-1.947v-1.526h-.81V64.84h.81v-.974l1.465-.318v1.292h1.594v1.378h-1.594v1.44c0 .456.232.67.604.67.257 0 .568-.102.973-.23l.251 1.178h-.003zm4.402 0c-.267.19-.887.415-1.482.415-.912 0-1.809-.534-1.809-1.947v-1.526h-.809V64.84h.809v-.974l1.465-.318v1.292h1.594v1.378h-1.594v1.44c0 .456.232.67.604.67.257 0 .569-.102.974-.23l.25 1.178h-.002zm2.351-5.842c0 .49-.369.844-.887.844-.517 0-.886-.353-.886-.845 0-.49.388-.835.886-.835.499 0 .887.354.887.836zm-1.619 1.404h1.465v4.738h-1.465v-4.738zm2.111 3.241h1.481c.061.26.25.507.931.507.492 0 .646-.128.646-.327 0-.2-.147-.232-.957-.405-1.353-.293-1.905-.655-1.905-1.49 0-1.026.819-1.63 2.188-1.63 1.369 0 1.991.579 2.137 1.482h-1.482c-.061-.225-.25-.38-.716-.38-.43 0-.646.13-.646.338 0 .163.138.18.707.302 1.413.31 2.181.594 2.181 1.577 0 1.095-.957 1.638-2.172 1.638-1.284 0-2.223-.61-2.396-1.612h.003zm9.875-1.465v2.965h-1.465V66.94c0-.517-.155-.819-.742-.819s-.861.286-.861.941v2.516h-1.465v-6.634h1.465v2.429c.344-.424.784-.646 1.369-.646 1.05 0 1.696.732 1.696 1.886h.003zm11.518-3.068l-1.455 6.032h-1.802l-.527-2.18-.311-2.13-.147-.01-.302 2.137-.527 2.181h-1.809l-1.455-6.032h1.507l.69 2.885.18 1.404.18-1.404.691-2.886h1.834l.691 2.886.189 1.439.18-1.44.691-2.884h1.5l.002.002zm5.092 3.662c0 1.43-1.095 2.483-2.481 2.483-1.385 0-2.482-1.06-2.482-2.483s1.111-2.483 2.482-2.483c1.372 0 2.481 1.051 2.481 2.483zm-3.482 0c0 .665.44 1.086.999 1.086.559 0 .999-.421.999-1.086s-.43-1.086-.999-1.086-.999.43-.999 1.086zm11.718-.594v2.964h-1.465v-2.637c0-.517-.154-.819-.706-.819-.552 0-.829.286-.829.94v2.516h-1.464v-2.637c0-.517-.155-.819-.707-.819-.552 0-.826.286-.826.94v2.516h-1.465V64.84h1.465v.533c.344-.423.784-.645 1.343-.645.646 0 1.147.301 1.423.828a1.852 1.852 0 011.568-.828c1.018 0 1.663.732 1.663 1.886zm5.68.903h-3.457c.068.732.534 1.044 1.044 1.044.395 0 .723-.19.835-.534h1.507c-.327 1.172-1.317 1.664-2.344 1.664-1.517 0-2.535-1.076-2.535-2.483 0-1.406 1.025-2.483 2.5-2.483 1.567 0 2.592 1.234 2.447 2.792h.003zm-3.412-.887h1.886c-.094-.456-.405-.777-.931-.777-.527 0-.836.319-.958.777h.003zm8.665-.016v2.964h-1.465v-2.637c0-.517-.155-.819-.749-.819s-.87.286-.87.94v2.516h-1.465V64.84h1.465v.533c.344-.423.783-.645 1.368-.645 1.07 0 1.716.732 1.716 1.886zm2.955-2.258c0 .215-.042.568-1.034 2.136h-.931l.697-1.44c-.311-.111-.508-.388-.508-.757 0-.517.379-.861.878-.861.363 0 .896.18.896.922h.002zm.389 3.723h1.481c.061.26.25.507.931.507.492 0 .646-.128.646-.327 0-.2-.147-.232-.957-.405-1.353-.293-1.905-.655-1.905-1.49 0-1.026.819-1.63 2.188-1.63 1.369 0 1.992.579 2.137 1.482h-1.482c-.06-.225-.25-.38-.716-.38-.43 0-.646.13-.646.338 0 .163.139.18.707.302 1.414.31 2.181.594 2.181 1.577 0 1.095-.957 1.638-2.171 1.638-1.285 0-2.224-.61-2.397-1.612h.003z" fill="#fff"/></g><defs><clipPath id="clip0_1006_6414"><path fill="#fff" d="M0 0h241v84.26H0z"/></clipPath></defs></svg>